HIERARCHY
ROOT Hips
{
	OFFSET 0.000000 0.000000 0.000000
	CHANNELS 6 Xposition Yposition Zposition Zrotation Yrotation Xrotation 
	JOINT LHipJoint
	{
		OFFSET 0.000000 0.000000 0.000000
		CHANNELS 3 Zrotation Yrotation Xrotation
		JOINT LeftUpLeg
		{
			OFFSET 1.363060 -1.794630 0.839290
			CHANNELS 3 Zrotation Yrotation Xrotation
			JOINT LeftLeg
			{
				OFFSET 2.448110 -6.726130 0.000000
				CHANNELS 3 Zrotation Yrotation Xrotation
				JOINT LeftFoot
				{
					OFFSET 2.562200 -7.039590 0.000000
					CHANNELS 3 Zrotation Yrotation Xrotation
					JOINT LeftToeBase
					{
						OFFSET 0.157640 -0.433110 2.322550
						CHANNELS 3 Zrotation Yrotation Xrotation
						End Site
						{
							OFFSET 0.000000 0.000000 0.000000
						}
					}
				}
			}
		}
	}
	JOINT RHipJoint
	{
		OFFSET 0.000000 0.000000 0.000000
		CHANNELS 3 Zrotation Yrotation Xrotation
		JOINT RightUpLeg
		{
			OFFSET -1.305520 -1.794630 0.839290
			CHANNELS 3 Zrotation Yrotation Xrotation
			JOINT RightLeg
			{
				OFFSET -2.542530 -6.985550 0.000000
				CHANNELS 3 Zrotation Yrotation Xrotation
				JOINT RightFoot
				{
					OFFSET -2.568260 -7.056230 0.000000
					CHANNELS 3 Zrotation Yrotation Xrotation
					JOINT RightToeBase
					{
						OFFSET -0.164730 -0.452590 2.363150
						CHANNELS 3 Zrotation Yrotation Xrotation
						End Site
						{
							OFFSET 0.000000 0.000000 0.000000
						}
					}
				}
			}
		}
	}
	JOINT LowerBack
	{
		OFFSET 0.000000 0.000000 0.000000
		CHANNELS 3 Zrotation Yrotation Xrotation
		JOINT Spine
		{
			OFFSET 0.028270 2.035590 -0.193380
			CHANNELS 3 Zrotation Yrotation Xrotation
			JOINT Spine1
			{
				OFFSET 0.056720 2.048850 -0.042750
				CHANNELS 3 Zrotation Yrotation Xrotation
				JOINT Neck
				{
					OFFSET 0.000000 0.000000 0.000000
					CHANNELS 3 Zrotation Yrotation Xrotation
					JOINT Neck1
					{
						OFFSET -0.054170 1.746240 0.172020
						CHANNELS 3 Zrotation Yrotation Xrotation
						JOINT Head
						{
							OFFSET 0.104070 1.761360 -0.123970
							CHANNELS 3 Zrotation Yrotation Xrotation
							End Site
							{
								OFFSET 0.000000 0.000000 0.000000
							}
						}
					}
				}
				JOINT LeftShoulder
				{
					OFFSET 0.000000 0.000000 0.000000
					CHANNELS 3 Zrotation Yrotation Xrotation
					JOINT LeftArm
					{
						OFFSET 3.362410 1.200890 -0.311210
						CHANNELS 3 Zrotation Yrotation Xrotation
						JOINT LeftForeArm
						{
							OFFSET 4.983000 -0.000000 -0.000000
							CHANNELS 3 Zrotation Yrotation Xrotation
							JOINT LeftHand
							{
								OFFSET 3.483560 -0.000000 -0.000000
								CHANNELS 3 Zrotation Yrotation Xrotation
								JOINT LeftFingerBase
								{
									OFFSET 0.000000 0.000000 0.000000
									CHANNELS 3 Zrotation Yrotation Xrotation
									JOINT LeftHandIndex1
									{
										OFFSET 0.715260 -0.000000 -0.000000
										CHANNELS 3 Zrotation Yrotation Xrotation
										End Site
										{
											OFFSET 0.000000 0.000000 0.000000
										}
									}
								}
								JOINT LThumb
								{
									OFFSET 0.000000 0.000000 0.000000
									CHANNELS 3 Zrotation Yrotation Xrotation
									End Site
									{
										OFFSET 0.000000 0.000000 0.000000
									}
								}
							}
						}
					}
				}
				JOINT RightShoulder
				{
					OFFSET 0.000000 0.000000 0.000000
					CHANNELS 3 Zrotation Yrotation Xrotation
					JOINT RightArm
					{
						OFFSET -3.136600 1.374050 -0.404650
						CHANNELS 3 Zrotation Yrotation Xrotation
						JOINT RightForeArm
						{
							OFFSET -5.241900 -0.000000 -0.000000
							CHANNELS 3 Zrotation Yrotation Xrotation
							JOINT RightHand
							{
								OFFSET -3.444170 -0.000000 -0.000000
								CHANNELS 3 Zrotation Yrotation Xrotation
								JOINT RightFingerBase
								{
									OFFSET 0.000000 0.000000 0.000000
									CHANNELS 3 Zrotation Yrotation Xrotation
									JOINT RightHandIndex1
									{
										OFFSET -0.622530 -0.000000 -0.000000
										CHANNELS 3 Zrotation Yrotation Xrotation
										End Site
										{
											OFFSET 0.000000 0.000000 0.000000
										}
									}
								}
								JOINT RThumb
								{
									OFFSET 0.000000 0.000000 0.000000
									CHANNELS 3 Zrotation Yrotation Xrotation
									End Site
									{
										OFFSET 0.000000 0.000000 0.000000
									}
								}
							}
						}
					}
				}
			}
		}
	}
}
MOTION
Frames: 4
Frame Time: 0.008333
1.133930 17.058162 0.514363 154.926605 -78.429788 -139.802210 -9.234817 3.044173 1.522300 -15.135692 18.321588 -21.735118 -2.839331 -1.141309 11.772445 2.544829 16.547003 -5.434548 0.906200 0.000000 -45.422300 11.331649 -1.865951 5.955844 -2.547302 1.034227 -28.123374 0.674669 -0.635260 23.767768 -2.740435 -10.408156 -10.250073 -0.269200 0.000000 -61.281900 -5.171592 -0.884404 -10.069020 -1.451483 -0.717055 -3.525279 -6.753654 -0.431557 4.540819 9.491761 -12.638918 -9.736478 -3.108539 -0.213373 -0.589638 0.000000 0.000000 0.000000 11.969374 20.533283 -3.054629 -81.243219 -13.347981 24.439870 -179.098073 -41.024989 179.779737 24.037564 -55.513535 -13.975255 -0.542281 3.205228 -0.000000 0.000000 0.000000 0.000000 0.000000 0.000000 0.000000 -0.629957 -10.433506 -4.587340 89.252102 19.577959 36.190276 -178.056803 49.956748 179.754927 -40.211513 47.664954 -19.666727 0.918177 -2.260898 -0.000000 0.000000 0.000000 0.000000 0.000000 0.000000 0.000000 
1.099530 17.070708 0.505827 157.922035 -77.080371 -142.402183 -9.403577 3.138993 1.513087 -15.527150 19.634460 -22.238618 -2.944942 -1.181964 11.300391 2.507587 16.503201 -5.093827 1.006600 0.000000 -45.753200 11.130317 -2.053903 6.463161 -2.675021 2.119280 -28.631805 0.680459 -0.517127 22.889461 -2.643652 -9.986009 -9.728639 -0.385700 0.000000 -61.452100 -4.807139 -0.799694 -10.738175 -1.403607 -0.689122 -3.588338 -6.777058 -0.408614 4.812784 9.354725 -12.842298 -9.932120 -3.070866 -0.208469 -0.636879 0.000000 0.000000 0.000000 11.581972 21.305051 -3.166015 -80.431947 -14.448886 24.270185 -178.868921 -40.962176 179.786420 24.002638 -56.012457 -14.101744 -0.541013 3.232491 -0.000000 0.000000 0.000000 0.000000 0.000000 0.000000 0.000000 -0.698603 -10.757531 -4.689495 89.433274 20.145856 37.073751 -178.132630 50.166685 179.759777 -40.254810 47.357044 -19.553713 0.933223 -2.252034 -0.000000 0.000000 0.000000 0.000000 0.000000 0.000000 0.000000 
1.064935 17.085311 0.497631 160.523756 -75.678578 -144.583292 -9.567262 3.246792 1.509085 -15.949959 20.983694 -22.776791 -3.063783 -1.222291 10.763684 2.458085 16.408755 -4.683883 1.124100 -0.000000 -46.129400 10.927856 -2.246693 6.981715 -2.810099 3.201096 -29.117788 0.694400 -0.383094 21.850198 -2.531751 -9.533109 -9.099142 -0.515601 -0.000000 -61.672900 -4.395158 -0.707962 -11.422471 -1.352478 -0.660627 -3.663148 -6.810600 -0.385398 5.039282 9.210964 -13.060268 -10.083651 -3.045519 -0.205135 -0.671994 0.000000 0.000000 0.000000 11.288671 21.876647 -3.278829 -79.502853 -15.613255 23.905887 -178.658061 -40.881238 179.792311 23.891672 -56.568479 -14.197633 -0.534529 3.259394 -0.000000 0.000000 0.000000 0.000000 0.000000 0.000000 0.000000 -0.721552 -11.109458 -4.761396 89.572325 20.737888 37.931492 -178.221893 50.390868 179.764620 -40.312501 47.081124 -19.461728 0.947534 -2.243306 -0.000000 0.000000 0.000000 0.000000 0.000000 0.000000 0.000000 
1.030686 17.101644 0.489645 162.772904 -74.251065 -146.387145 -9.725181 3.363535 1.513842 -16.399896 22.326038 -23.350067 -3.191666 -1.261517 10.183904 2.399764 16.277952 -4.212467 1.256700 0.000000 -46.545700 10.725295 -2.443720 7.504929 -2.954886 4.264784 -29.575868 0.718079 -0.235365 20.657995 -2.404616 -9.054041 -8.360689 -0.655900 -0.000000 -61.949600 -3.942877 -0.614143 -12.115536 -1.298880 -0.635684 -3.750399 -6.855505 -0.365960 5.209901 9.062846 -13.284849 -10.179777 -3.034112 -0.203652 -0.691982 0.000000 0.000000 0.000000 11.109545 22.205951 -3.387765 -78.429892 -16.825087 23.314583 -178.475641 -40.787809 179.797032 23.708297 -57.149870 -14.254323 -0.523169 3.284059 -0.000000 0.000000 0.000000 0.000000 0.000000 0.000000 0.000000 -0.698578 -11.480451 -4.798863 89.668969 21.341835 38.739016 -178.321727 50.627587 179.769253 -40.388516 46.854690 -19.400071 0.960441 -2.235098 -0.000000 0.000000 0.000000 0.000000 0.000000 0.000000 0.000000 
